<svg width="59" height="58" viewBox="0 0 59 58" fill="none" xmlns="http://www.w3.org/2000/svg">
<ellipse cx="29.471" cy="29" rx="29.471" ry="29" fill="black"/>
<path d="M25.5234 45H20.1328C19.9766 45 19.8984 44.9219 19.8984 44.7656L19.9922 11.7891C19.9922 11.6641 20.0547 11.6016 20.1797 11.6016H29.4141C32.3516 11.6016 34.6719 12.5 36.375 14.2969C38.0938 16.0781 38.9531 18.5078 38.9531 21.5859C38.9531 23.8359 38.5078 25.7969 37.6172 27.4688C36.7109 29.125 35.5391 30.4062 34.1016 31.3125C32.6641 32.2188 31.1016 32.6719 29.4141 32.6719H25.7578V44.7656C25.7578 44.9219 25.6797 45 25.5234 45ZM29.4141 17.2969L25.7578 17.3438V26.8594H29.4141C30.4297 26.8594 31.3125 26.375 32.0625 25.4062C32.8125 24.4219 33.1875 23.1484 33.1875 21.5859C33.1875 20.3359 32.8516 19.3125 32.1797 18.5156C31.5078 17.7031 30.5859 17.2969 29.4141 17.2969Z" fill="white"/>
</svg>
